<svg width="33" height="33" viewBox="0 0 33 33" fill="none" xmlns="http://www.w3.org/2000/svg">
<g clip-path="url(#clip0_49_420)">
<path d="M16.2549 32.505C25.1384 32.505 32.3399 25.3035 32.3399 16.42C32.3399 7.53646 25.1384 0.334961 16.2549 0.334961C7.37142 0.334961 0.169922 7.53646 0.169922 16.42C0.169922 25.3035 7.37142 32.505 16.2549 32.505Z" fill="#E4E8EA"/>
<path d="M17.3439 14.0743H20.8624V17.5929H17.3439V25.8029H13.8253V17.5929H10.3066V14.0743H13.8253V12.6023C13.8253 11.2078 14.2639 9.44618 15.1365 8.48325C16.0091 7.51799 17.0987 7.03711 18.4041 7.03711H20.8624V10.5557H18.3994C17.8154 10.5557 17.3439 11.0272 17.3439 11.6101V14.0743Z" fill="#252F53"/>
</g>
<defs>
<clipPath id="clip0_49_420">
<rect width="32.17" height="32.17" fill="white" transform="translate(0.169922 0.334961)"/>
</clipPath>
</defs>
</svg>
