<svg width="33" height="33" viewBox="0 0 33 33" fill="none" xmlns="http://www.w3.org/2000/svg">
<g clip-path="url(#clip0_49_426)">
<path d="M16.5249 32.505C25.4084 32.505 32.6099 25.3035 32.6099 16.42C32.6099 7.53646 25.4084 0.334961 16.5249 0.334961C7.64144 0.334961 0.439941 7.53646 0.439941 16.42C0.439941 25.3035 7.64144 32.505 16.5249 32.505Z" fill="#E4E8EA"/>
<path d="M16.5248 19.4837C18.2169 19.4837 19.5886 18.1119 19.5886 16.4198C19.5886 14.7277 18.2169 13.356 16.5248 13.356C14.8326 13.356 13.4609 14.7277 13.4609 16.4198C13.4609 18.1119 14.8326 19.4837 16.5248 19.4837Z" fill="#252F53"/>
<path d="M20.354 7.22852H12.6944C9.73858 7.22852 7.3335 9.63437 7.3335 12.5909V20.2505C7.3335 23.2063 9.73935 25.6114 12.6959 25.6114H20.3555C23.3113 25.6114 25.7164 23.2055 25.7164 20.249V12.5894C25.7164 9.6336 23.3105 7.22852 20.354 7.22852ZM16.5249 21.0157C13.9904 21.0157 11.9292 18.9545 11.9292 16.4199C11.9292 13.8854 13.9904 11.8242 16.5249 11.8242C19.0595 11.8242 21.1206 13.8854 21.1206 16.4199C21.1206 18.9545 19.0595 21.0157 16.5249 21.0157ZM21.8866 11.8242C21.4638 11.8242 21.1206 11.4811 21.1206 11.0583C21.1206 10.6355 21.4638 10.2923 21.8866 10.2923C22.3094 10.2923 22.6525 10.6355 22.6525 11.0583C22.6525 11.4811 22.3094 11.8242 21.8866 11.8242Z" fill="#252F53"/>
</g>
<defs>
<clipPath id="clip0_49_426">
<rect width="32.17" height="32.17" fill="white" transform="translate(0.439941 0.334961)"/>
</clipPath>
</defs>
</svg>
